<?xml version="1.0" encoding="iso-8859-1"?>
<!-- Generator: Adobe Illustrator 19.0.0, SVG Export Plug-In . SVG Version: 6.00 Build 0)  -->
<svg version="1.1" id="Capa_1" xmlns="http://www.w3.org/2000/svg" xmlns:xlink="http://www.w3.org/1999/xlink" x="0px" y="0px"
	 viewBox="0 0 496 496" style="enable-background:new 0 0 496 496;" xml:space="preserve">
<rect x="96" y="408" style="fill:#AFB8C9;" width="304" height="32"/>
<g>
	<path style="fill:#8C95A4;" d="M80,488H48c-8.84,0-16-7.16-16-16V344c0-8.84,7.16-16,16-16h32c8.84,0,16,7.16,16,16v128
		C96,480.84,88.84,488,80,488z"/>
	<path style="fill:#8C95A4;" d="M448,488h-32c-8.84,0-16-7.16-16-16V344c0-8.84,7.16-16,16-16h32c8.84,0,16,7.16,16,16v128
		C464,480.84,456.84,488,448,488z"/>
</g>
<g>
	<rect x="424" y="328" style="fill:#AFB8C9;" width="16" height="160"/>
	<rect x="56" y="328" style="fill:#AFB8C9;" width="16" height="160"/>
</g>
<path style="fill:#ECECEC;" d="M96,408v-96c0-8.84,7.16-16,16-16h16h32h224c8.84,0,16,7.16,16,16v96H96z"/>
<path style="fill:#B6C1CE;" d="M384,296h-40c8.84,0,16,7.16,16,16v96h40v-96C400,303.16,392.84,296,384,296z"/>
<polygon style="fill:#FCD770;" points="357.712,360 138.288,360 120,408 376,408 "/>
<g>
	<rect x="296" y="360" style="fill:#FEA82F;" width="32" height="48"/>
	<rect x="176" y="360" style="fill:#FEA82F;" width="32" height="48"/>
</g>
<path style="fill:#FCD770;" d="M128,168v144c0,8.84,7.16,16,16,16s16-7.16,16-16V168H128z"/>
<path style="fill:#ECECEC;" d="M80,136v24c0,4.416,3.584,8,8,8h112c4.416,0,8-3.584,8-8v-24H80z"/>
<path style="fill:#B6C1CE;" d="M184,136v24c0,4.416-3.584,8-8,8h24c4.416,0,8-3.584,8-8v-24H184z"/>
<path style="fill:#AFB8C9;" d="M216,136H72c-8.84,0-16-7.16-16-16V40c0-8.84,7.16-16,16-16h144c8.84,0,16,7.16,16,16v80
	C232,128.84,224.84,136,216,136z"/>
<path style="fill:#8C95A4;" d="M216,24h-24c8.84,0,16,7.16,16,16v80c0,8.84-7.16,16-16,16h24c8.84,0,16-7.16,16-16V40
	C232,31.16,224.84,24,216,24z"/>
<circle style="fill:#39C3FC;" cx="168" cy="80" r="32"/>
<g>
	<polygon style="fill:#ECECEC;" points="272,264 160,264 160,296 288,296 	"/>
	<polygon style="fill:#ECECEC;" points="360,264 296,264 288,296 368,296 	"/>
</g>
<rect x="312" y="168" style="fill:#AFB8C9;" width="32" height="96"/>
<polygon style="fill:#48C397;" points="272,136 280,168 376,168 384,136 "/>
<path d="M448,320h-32c-2.816,0-5.488,0.576-8,1.472V312c0-13.232-10.768-24-24-24h-9.76l-7.992-32H352v-80h30.248l7.992-32H400v-16
	h-64V96h-16v32h-64v16h9.76l7.992,32H304v80h-14.248l-4.264,17.08L276.944,256H168v-80h32c8.824,0,16-7.176,16-16v-16
	c13.232,0,24-10.768,24-24V40c0-13.232-10.768-24-24-24H72c-13.232,0-24,10.768-24,24v80c0,13.232,10.768,24,24,24v16
	c0,8.824,7.176,16,16,16h32v112h-8c-13.232,0-24,10.768-24,24v9.472c-2.512-0.896-5.184-1.472-8-1.472H48c-13.232,0-24,10.768-24,24
	v128c0,13.232,10.768,24,24,24h32c13.232,0,24-10.768,24-24v-24h288v24c0,13.232,10.768,24,24,24h32c13.232,0,24-10.768,24-24V344
	C472,330.768,461.232,320,448,320z M282.248,144h91.512l-4.008,16h-83.504L282.248,144z M320,176h16v80h-16V176z M353.752,272
	l4.008,16h-59.512l4.008-16H353.752z M267.056,272l8,16H168v-16H267.056z M72,32h32v32H64V40C64,35.584,67.584,32,72,32z M64,120V80
	h40c8.824,0,16-7.176,16-16V32h96c4.416,0,8,3.584,8,8v80c0,4.416-3.584,8-8,8h-88v-16h-16v16H96v-16H80v16h-8
	C67.584,128,64,124.416,64,120z M88,144h112v16H88V144z M152,176v136c0,4.416-3.584,8-8,8s-8-3.584-8-8V176H152z M104,312
	c0-4.416,3.584-8,8-8h8v8c0,13.232,10.768,24,24,24s24-10.768,24-24v-8h216c4.416,0,8,3.584,8,8v32v56h-10.488l-18.288-48H132.776
	l-18.288,48H104v-56V312z M131.608,400l12.192-32H168v32H131.608z M184,368h16v32h-16V368z M216,368h40v32h-40V368z M272,368h16v32
	h-16V368z M304,368h16v32h-16V368z M336,368h16.192l12.192,32H336V368z M80,480H48c-4.416,0-8-3.584-8-8v-8h16v-16H40v-16h16v-16H40
	v-16h16v-16H40v-16h16v-16H40v-8c0-4.416,3.584-8,8-8h32c4.416,0,8,3.584,8,8v8H72v16h16v16H72v16h16v8v8H72v16h16v16H72v16h16v8
	C88,476.416,84.416,480,80,480z M104,432v-16h288v16H104z M448,480h-32c-4.416,0-8-3.584-8-8v-8h16v-16h-16v-16h16v-16h-16v-8v-8h16
	v-16h-16v-16h16v-16h-16v-8c0-4.416,3.584-8,8-8h32c4.416,0,8,3.584,8,8v8h-16v16h16v16h-16v16h16v16h-16v16h16v16h-16v16h16v8
	C456,476.416,452.416,480,448,480z"/>
<rect x="280" y="320" width="16" height="16"/>
<rect x="312" y="320" width="16" height="16"/>
<rect x="344" y="320" width="16" height="16"/>
<path d="M168,120c22.056,0,40-17.944,40-40s-17.944-40-40-40s-40,17.944-40,40S145.944,120,168,120z M168,56
	c13.232,0,24,10.768,24,24s-10.768,24-24,24s-24-10.768-24-24S154.768,56,168,56z"/>
<rect x="160" y="72" width="16" height="16"/>
<rect x="320" y="64" width="16" height="16"/>
<path d="M361.936,46.064C352.88,36.992,340.832,32,328,32s-24.88,4.992-33.936,14.064l11.312,11.312
	c12.08-12.096,33.168-12.096,45.248,0L361.936,46.064z"/>
<path d="M328,16c17.096,0,33.168,6.656,45.256,18.744l11.312-11.312C369.456,8.32,349.36,0,328,0s-41.456,8.32-56.568,23.432
	l11.312,11.312C294.832,22.656,310.904,16,328,16z"/>
<g>
</g>
<g>
</g>
<g>
</g>
<g>
</g>
<g>
</g>
<g>
</g>
<g>
</g>
<g>
</g>
<g>
</g>
<g>
</g>
<g>
</g>
<g>
</g>
<g>
</g>
<g>
</g>
<g>
</g>
</svg>
